# xmcd
# Track frame offsets:
# 150
# 11951
# 25389
# 38721
# 57881
# 67880
# 79551
# 94176
# 108888
# 121026
# 132345
# 148158
# 157566
# 172059
# 182694
# 193434
# 206294
# 219711
# 230081
# 242484
#
# Disc length: 3410 seconds
# Revision: 0
# Processed by: cddbd v1.5.2PL0 Copyright (c) Steve Scherf et al.
# Submitted via: VisiTrax 2.11.3.279 - For more info visit www.synapsa.com
#
DISCID=130d5014
DTITLE=Various (1950s-1960's) Pop and Rock and Country and Western and R&B and Blues Ar
DTITLE=tists - The 60's US Playlist: CD1 of 3: *ReMastered Tracks
DYEAR=1962
DGENRE=Pop
TTITLE0=Johnny Cash - Ring Of Fire*
TTITLE1=Scott McKenzie - San Francisco (Be Sure To Wear Some Flowers In Your H
TTITLE1=air)*
TTITLE2=Aretha Franklin - My Guy*
TTITLE3=Big Brother and The Holding Company feat Janis Joplin - Piece Of My Hear
TTITLE3=t*
TTITLE4=Mohamed Ali as Cassius Clay - Stand By Me*
TTITLE5=Doris Day - Move Over Darling*
TTITLE6=Andy Williams - Happy Heart*
TTITLE7=Chicken Shack - I'd Rather Go Blind*
TTITLE8=Lovin' Spoonful - Summer In The City*
TTITLE9=Billy Joe Royal - Hush*
TTITLE10=Blood Sweat And Tears - You've Made Me So Very Happy*
TTITLE11=Crazy Elephant - Gimme Gimme Good Lovin'*
TTITLE12=Gary Puckett and The Union Gap - Young Girl*
TTITLE13=Major Lance - Um, Um, Um, Um, Um, Um*
TTITLE14=Barbara Lynn - I'm A Good Woman*
TTITLE15=Lee Dorsey - Working In A Coal Mine*
TTITLE16=Strangeloves The - I Want Candy*
TTITLE17=Paul Anka - Love Me Warm And Tender*
TTITLE18=Johnny Nash - Hold Me Tight*
TTITLE19=Gale Garnett - We'll Sing In The Sunshine*
EXTD=Compilation and ReMastering: Demon/Sony: 2017
EXTT0=
EXTT1=
EXTT2=
EXTT3=
EXTT4=
EXTT5=
EXTT6=
EXTT7=
EXTT8=
EXTT9=
EXTT10=
EXTT11=
EXTT12=
EXTT13=
EXTT14=
EXTT15=
EXTT16=
EXTT17=
EXTT18=
EXTT19=
PLAYORDER=
